<svg width="259" height="34" viewBox="0 0 259 34" fill="none" xmlns="http://www.w3.org/2000/svg">
<path d="M95.1544 11.2014C94.9805 11.2249 94.8031 11.2104 94.6362 11.1592C94.4694 11.108 94.3177 11.0214 94.1931 10.9063C94.0685 10.7912 93.9745 10.6508 93.9185 10.4961C93.8625 10.3414 93.8461 10.1767 93.8705 10.0151V6.99912H93.8677V3.98578C93.8433 3.82405 93.8598 3.65926 93.9158 3.50447C93.9719 3.34967 94.0659 3.20912 94.1906 3.09394C94.3152 2.97876 94.467 2.89211 94.634 2.84085C94.801 2.78959 94.9785 2.77514 95.1525 2.79862H101.998V0.0169419H94.2959C93.1185 -0.0818075 91.9466 0.253902 91.0336 0.951455C90.6593 1.36443 90.3768 1.8422 90.2025 2.35717C90.0282 2.87213 89.9655 3.41408 90.018 3.95168V7.00087H90.0199V10.0483C89.9674 10.586 90.0302 11.128 90.2047 11.643C90.3792 12.1579 90.6619 12.6357 91.0364 13.0485C91.949 13.7461 93.1207 14.0818 94.2978 13.9831H102V11.2014H95.1544Z" fill="white"/>
<path d="M113.977 3.64883C114.049 3.51972 114.146 3.40697 114.262 3.31736C114.37 3.22573 114.506 3.17624 114.646 3.17765H115.587V0.223027L115.422 0.196125C115.263 0.171829 115.092 0.14059 114.899 0.100674C114.734 0.0746422 114.55 0.052082 114.347 0.0329919C114.142 0.013034 113.929 0.0026214 113.713 0.0026214C113.095 -0.0252851 112.487 0.170333 111.995 0.555367C111.552 0.93388 111.189 1.40132 110.928 1.92899L109.116 5.46152H107.747V0.194391H104V14H107.747V8.5411H109.118L112.011 14H116L112.253 6.99914L113.977 3.64883Z" fill="white"/>
<path d="M125.918 0.0151041H121.083C119.965 -0.0783387 118.853 0.264489 117.993 0.968506C117.271 1.80728 116.919 2.89122 117.016 3.98249V10.0173C116.919 11.1086 117.271 12.1927 117.993 13.0313C118.853 13.7359 119.965 14.0789 121.083 13.9847H125.918C127.036 14.0784 128.148 13.7355 129.008 13.0313C129.729 12.1922 130.08 11.1084 129.984 10.0173V3.98249C130.08 2.89141 129.729 1.80775 129.008 0.968506C128.147 0.26476 127.036 -0.0780314 125.918 0.0151041ZM126.103 3.98249V10.0173C126.103 10.664 125.807 10.9528 125.144 10.9528H121.857C121.194 10.9528 120.898 10.664 120.898 10.0173V3.98249C120.898 3.33578 121.194 3.04703 121.857 3.04703H125.144C125.807 3.04703 126.103 3.33578 126.103 3.98249Z" fill="white"/>
<path d="M140.357 0.0155747H133V14H136.432V10.12H140.357C140.849 10.2174 141.353 10.1792 141.829 10.0086C142.305 9.8379 142.737 9.53979 143.09 9.13943C143.442 8.73907 143.705 8.24823 143.855 7.70838C144.006 7.16852 144.039 6.59552 143.954 6.03778V4.09689C144.038 2.97424 143.728 1.85922 143.09 0.99569C142.329 0.271752 141.346 -0.0806462 140.357 0.0155747ZM136.432 3.13436H139.674C140.26 3.13436 140.522 3.43147 140.522 4.09689V6.03778C140.522 6.70408 140.26 7.00032 139.674 7.00032H136.432V3.13436Z" fill="white"/>
<path d="M146 14H150.138V3.12294H154.862V14H159V0H146V14Z" fill="white"/>
<path d="M165.82 7.77925V0H162V14H165.928L170.18 6.22076V14H174V0H170.072L165.82 7.77925Z" fill="white"/>
<path d="M185.588 0.0151034H180.412C179.214 -0.0782318 178.023 0.263721 177.102 0.966066C176.329 1.80301 175.953 2.88402 176.056 3.97234V9.99172C175.952 10.5324 175.993 11.0878 176.175 11.6112C176.357 12.1345 176.675 12.6103 177.103 12.9984C177.53 13.3865 178.053 13.6755 178.63 13.8409C179.206 14.0064 179.817 14.0434 180.412 13.949H185.588C186.183 14.0433 186.794 14.0061 187.37 13.8406C187.946 13.6751 188.47 13.3861 188.897 12.998C189.324 12.61 189.643 12.1342 189.825 11.611C190.007 11.0877 190.048 10.5324 189.944 9.99172V3.97234C190.047 2.88389 189.67 1.80284 188.897 0.966066C187.976 0.263851 186.786 -0.0781003 185.588 0.0151034ZM185.787 3.97234V9.99172C185.787 10.6368 185.471 10.9248 184.76 10.9248H181.239C180.529 10.9248 180.212 10.6368 180.212 9.99172V3.97234C180.212 3.32729 180.529 3.03927 181.239 3.03927H184.76C185.471 3.03927 185.787 3.32729 185.787 3.97234Z" fill="white"/>
<path d="M200.18 5.34163H195.82V0H192V14H195.82V8.46389H200.18V14H204V0H200.18V5.34163Z" fill="white"/>
<path d="M222.695 0.0155353H214V14H218.056V10.12H222.695C223.276 10.2172 223.872 10.1789 224.434 10.0082C224.996 9.83741 225.507 9.53931 225.924 9.139C226.341 8.73868 226.651 8.24792 226.829 7.70816C227.007 7.16839 227.047 6.59547 226.945 6.03776V4.09686C227.045 2.97409 226.678 1.85906 225.924 0.995653C225.025 0.271847 223.864 -0.0805493 222.695 0.0155353ZM218.056 3.13433H221.887C222.58 3.13433 222.889 3.43144 222.889 4.09686V6.03776C222.889 6.70406 222.58 7.0003 221.887 7.0003H218.056V3.13433Z" fill="white"/>
<path d="M228 0V14H232.137V3.12206H236.862V14H241V0H228Z" fill="white"/>
<path d="M211 5H207V8H211V5Z" fill="white"/>
<path d="M73 21.685V29H50V0H73V7.31499H57.3392V21.685H73Z" fill="white"/>
<path d="M37.2289 29L45 0H35.7711L28 29H37.2289Z" fill="white"/>
<path d="M22.686 29L30 0H21.314L14 29H22.686Z" fill="white"/>
<path d="M8.68603 29L16 0H7.31397L0 29H8.68603Z" fill="white"/>
<path d="M95.64 28.06C94.94 28.76 94.0867 29.11 93.08 29.11C92.0733 29.11 91.22 28.76 90.52 28.06C89.82 27.3533 89.47 26.5 89.47 25.5C89.47 24.5 89.82 23.65 90.52 22.95C91.22 22.2433 92.0733 21.89 93.08 21.89C94.0867 21.89 94.94 22.2433 95.64 22.95C96.34 23.65 96.69 24.5 96.69 25.5C96.69 26.5 96.34 27.3533 95.64 28.06ZM90.89 27.7C91.49 28.3 92.22 28.6 93.08 28.6C93.94 28.6 94.6667 28.3 95.26 27.7C95.86 27.0933 96.16 26.36 96.16 25.5C96.16 24.64 95.86 23.91 95.26 23.31C94.6667 22.7033 93.94 22.4 93.08 22.4C92.22 22.4 91.49 22.7033 90.89 23.31C90.2967 23.91 90 24.64 90 25.5C90 26.36 90.2967 27.0933 90.89 27.7ZM103.174 29.11C102.121 29.11 101.251 28.7633 100.564 28.07C99.8774 27.37 99.5341 26.5133 99.5341 25.5C99.5341 24.4867 99.8774 23.6333 100.564 22.94C101.251 22.24 102.121 21.89 103.174 21.89C103.814 21.89 104.401 22.0433 104.934 22.35C105.467 22.65 105.881 23.0567 106.174 23.57L105.704 23.84C105.471 23.4067 105.127 23.06 104.674 22.8C104.221 22.5333 103.721 22.4 103.174 22.4C102.267 22.4 101.521 22.7 100.934 23.3C100.354 23.8933 100.064 24.6267 100.064 25.5C100.064 26.3733 100.354 27.11 100.934 27.71C101.521 28.3033 102.267 28.6 103.174 28.6C103.721 28.6 104.224 28.4667 104.684 28.2C105.144 27.9333 105.491 27.5767 105.724 27.13L106.194 27.4C105.907 27.92 105.494 28.3367 104.954 28.65C104.414 28.9567 103.821 29.11 103.174 29.11ZM113.944 22H114.474V29H113.944V25.65H109.874V29H109.344V22H109.874V25.15H113.944V22ZM123.879 28.06C123.179 28.76 122.326 29.11 121.319 29.11C120.312 29.11 119.459 28.76 118.759 28.06C118.059 27.3533 117.709 26.5 117.709 25.5C117.709 24.5 118.059 23.65 118.759 22.95C119.459 22.2433 120.312 21.89 121.319 21.89C122.326 21.89 123.179 22.2433 123.879 22.95C124.579 23.65 124.929 24.5 124.929 25.5C124.929 26.5 124.579 27.3533 123.879 28.06ZM119.129 27.7C119.729 28.3 120.459 28.6 121.319 28.6C122.179 28.6 122.906 28.3 123.499 27.7C124.099 27.0933 124.399 26.36 124.399 25.5C124.399 24.64 124.099 23.91 123.499 23.31C122.906 22.7033 122.179 22.4 121.319 22.4C120.459 22.4 119.729 22.7033 119.129 23.31C118.536 23.91 118.239 24.64 118.239 25.5C118.239 26.36 118.536 27.0933 119.129 27.7ZM131.903 25.37C132.263 25.51 132.553 25.7333 132.773 26.04C132.993 26.3467 133.103 26.6967 133.103 27.09C133.103 27.6167 132.916 28.0667 132.543 28.44C132.17 28.8133 131.72 29 131.193 29H128.173V22H130.963C131.47 22 131.903 22.18 132.263 22.54C132.623 22.9 132.803 23.3333 132.803 23.84C132.803 24.1733 132.72 24.4767 132.553 24.75C132.393 25.0167 132.176 25.2233 131.903 25.37ZM130.963 22.5H128.703V25.18H130.963C131.323 25.18 131.63 25.05 131.883 24.79C132.143 24.5233 132.273 24.2067 132.273 23.84C132.273 23.4733 132.143 23.16 131.883 22.9C131.63 22.6333 131.323 22.5 130.963 22.5ZM131.193 28.5C131.573 28.5 131.896 28.3633 132.163 28.09C132.436 27.81 132.573 27.4767 132.573 27.09C132.573 26.7033 132.436 26.3733 132.163 26.1C131.896 25.82 131.573 25.68 131.193 25.68H128.703V28.5H131.193ZM141.014 29L140.334 27.22H136.824L136.144 29H135.584L138.304 22H138.864L141.574 29H141.014ZM137.024 26.72H140.144L138.584 22.65L137.024 26.72ZM149.093 22H149.623V29H149.093V25.65H145.023V29H144.493V22H145.023V25.15H149.093V22ZM159.028 28.06C158.328 28.76 157.475 29.11 156.468 29.11C155.461 29.11 154.608 28.76 153.908 28.06C153.208 27.3533 152.858 26.5 152.858 25.5C152.858 24.5 153.208 23.65 153.908 22.95C154.608 22.2433 155.461 21.89 156.468 21.89C157.475 21.89 158.328 22.2433 159.028 22.95C159.728 23.65 160.078 24.5 160.078 25.5C160.078 26.5 159.728 27.3533 159.028 28.06ZM154.278 27.7C154.878 28.3 155.608 28.6 156.468 28.6C157.328 28.6 158.055 28.3 158.648 27.7C159.248 27.0933 159.548 26.36 159.548 25.5C159.548 24.64 159.248 23.91 158.648 23.31C158.055 22.7033 157.328 22.4 156.468 22.4C155.608 22.4 154.878 22.7033 154.278 23.31C153.685 23.91 153.388 24.64 153.388 25.5C153.388 26.36 153.685 27.0933 154.278 27.7ZM171.618 25.37C171.978 25.51 172.268 25.7333 172.488 26.04C172.708 26.3467 172.818 26.6967 172.818 27.09C172.818 27.6167 172.631 28.0667 172.258 28.44C171.885 28.8133 171.435 29 170.908 29H167.888V22H170.678C171.185 22 171.618 22.18 171.978 22.54C172.338 22.9 172.518 23.3333 172.518 23.84C172.518 24.1733 172.435 24.4767 172.268 24.75C172.108 25.0167 171.891 25.2233 171.618 25.37ZM170.678 22.5H168.418V25.18H170.678C171.038 25.18 171.345 25.05 171.598 24.79C171.858 24.5233 171.988 24.2067 171.988 23.84C171.988 23.4733 171.858 23.16 171.598 22.9C171.345 22.6333 171.038 22.5 170.678 22.5ZM170.908 28.5C171.288 28.5 171.611 28.3633 171.878 28.09C172.151 27.81 172.288 27.4767 172.288 27.09C172.288 26.7033 172.151 26.3733 171.878 26.1C171.611 25.82 171.288 25.68 170.908 25.68H168.418V28.5H170.908ZM181.714 22H182.164V29H181.634V22.58L180.014 23.09L179.884 22.63L181.714 22ZM189.965 24.19C189.965 24.7167 189.821 25.1833 189.535 25.59L187.195 29H186.595L188.385 26.39C188.131 26.4633 187.875 26.5 187.615 26.5C186.928 26.5 186.365 26.2867 185.925 25.86C185.485 25.4267 185.265 24.87 185.265 24.19C185.265 23.5167 185.485 22.9667 185.925 22.54C186.365 22.1067 186.928 21.89 187.615 21.89C188.301 21.89 188.865 22.1067 189.305 22.54C189.745 22.9667 189.965 23.5167 189.965 24.19ZM185.805 24.19C185.805 24.7233 185.968 25.1567 186.295 25.49C186.628 25.8233 187.068 25.99 187.615 25.99C188.161 25.99 188.601 25.8233 188.935 25.49C189.268 25.1567 189.435 24.7233 189.435 24.19C189.435 23.6633 189.268 23.2333 188.935 22.9C188.601 22.5667 188.161 22.4 187.615 22.4C187.068 22.4 186.628 22.5667 186.295 22.9C185.968 23.2333 185.805 23.6633 185.805 24.19ZM197.236 24.19C197.236 24.7167 197.093 25.1833 196.806 25.59L194.466 29H193.866L195.656 26.39C195.403 26.4633 195.146 26.5 194.886 26.5C194.199 26.5 193.636 26.2867 193.196 25.86C192.756 25.4267 192.536 24.87 192.536 24.19C192.536 23.5167 192.756 22.9667 193.196 22.54C193.636 22.1067 194.199 21.89 194.886 21.89C195.573 21.89 196.136 22.1067 196.576 22.54C197.016 22.9667 197.236 23.5167 197.236 24.19ZM193.076 24.19C193.076 24.7233 193.239 25.1567 193.566 25.49C193.899 25.8233 194.339 25.99 194.886 25.99C195.433 25.99 195.873 25.8233 196.206 25.49C196.539 25.1567 196.706 24.7233 196.706 24.19C196.706 23.6633 196.539 23.2333 196.206 22.9C195.873 22.5667 195.433 22.4 194.886 22.4C194.339 22.4 193.899 22.5667 193.566 22.9C193.239 23.2333 193.076 23.6633 193.076 24.19ZM201.942 24.85C202.595 24.85 203.145 25.0433 203.592 25.43C204.045 25.81 204.272 26.3267 204.272 26.98C204.272 27.6333 204.045 28.1533 203.592 28.54C203.145 28.92 202.595 29.11 201.942 29.11C201.428 29.11 200.968 28.9867 200.562 28.74C200.162 28.4933 199.885 28.1467 199.732 27.7L200.182 27.44C200.295 27.8133 200.508 28.1 200.822 28.3C201.135 28.5 201.508 28.6 201.942 28.6C202.468 28.6 202.898 28.4533 203.232 28.16C203.572 27.8667 203.742 27.4733 203.742 26.98C203.742 26.4867 203.572 26.0933 203.232 25.8C202.898 25.5067 202.468 25.36 201.942 25.36H200.072L200.312 22H204.012V22.5H200.782L200.622 24.85H201.942ZM215.858 22V22.5H212.558V29H212.028V22H215.858ZM224.131 28.06C223.431 28.76 222.578 29.11 221.571 29.11C220.565 29.11 219.711 28.76 219.011 28.06C218.311 27.3533 217.961 26.5 217.961 25.5C217.961 24.5 218.311 23.65 219.011 22.95C219.711 22.2433 220.565 21.89 221.571 21.89C222.578 21.89 223.431 22.2433 224.131 22.95C224.831 23.65 225.181 24.5 225.181 25.5C225.181 26.5 224.831 27.3533 224.131 28.06ZM219.381 27.7C219.981 28.3 220.711 28.6 221.571 28.6C222.431 28.6 223.158 28.3 223.751 27.7C224.351 27.0933 224.651 26.36 224.651 25.5C224.651 24.64 224.351 23.91 223.751 23.31C223.158 22.7033 222.431 22.4 221.571 22.4C220.711 22.4 219.981 22.7033 219.381 23.31C218.788 23.91 218.491 24.64 218.491 25.5C218.491 26.36 218.788 27.0933 219.381 27.7ZM233.033 28.5H233.773V30.34H233.233V29H227.973V30.34H227.433V28.5H227.993C228.473 27.96 228.713 27.1233 228.713 25.99V22H233.033V28.5ZM229.243 26C229.243 27.08 229.036 27.9133 228.623 28.5H232.503V22.5H229.243V26ZM240.842 22H241.392L239.062 27.47C238.595 28.5633 237.885 29.0733 236.932 29V28.51C237.652 28.59 238.185 28.2233 238.532 27.41L238.652 27.13L236.192 22H236.742L238.902 26.53L240.842 22Z" fill="white"/>
</svg>
